<svg width="590" height="545" viewBox="0 0 590 545" fill="none" xmlns="http://www.w3.org/2000/svg">
<path fill-rule="evenodd" clip-rule="evenodd" d="M296.683 18.9322C334.398 27.5688 363.326 56.6898 401.169 64.7498C461.896 77.6838 551.004 27.2485 583.628 80.047C615.722 131.987 511.91 184.578 512.924 245.615C513.967 308.405 599.183 352.392 589.184 414.39C579.745 472.917 521.385 517.727 465.731 538.239C411.704 558.151 353.938 528.34 296.683 522.195C245.971 516.752 193.367 526.104 147.376 504.068C99.7963 481.272 60.4627 442.798 34.8005 396.723C9.33238 350.996 -7.5971 296.776 3.4277 245.615C13.9789 196.653 64.9892 169.646 92.7237 127.93C118.312 89.4425 119.565 31.3906 160.338 9.60096C201.206 -12.2395 251.509 8.58771 296.683 18.9322Z" fill="#ECF0F3"/>
</svg>
