<svg width="545" height="218" viewBox="0 0 545 218" fill="none" xmlns="http://www.w3.org/2000/svg">
<path d="M37.4999 199L39.2487 186.025L122 186.025L200 194.5L250 215.5L51.4999 215.5L37.4999 199Z" fill="#D8DE83" stroke="#D8DE83" stroke-width="0.5"/>
<path d="M128 165.5L130.5 164.5L138.5 155L162.5 153L185.5 157L226 165.5L241.5 179.5L252 204.5L248 215L199 214L198 208L195.5 210.5L198 195.5L190.5 205.5L179.5 210.5L178 203.5L170 204.5L168.5 208L164.5 207H159L155 211L153 208L150 207.5L153 200.5L148 201L148 196.5L140.5 199L144.809 190.5L135.5 195L133 200.5L130 206L127 203L121.5 203L118.5 201L116 201L113 204L107.5 200L103.5 201L98.5 206L99 202.5L98.5 197.5L95.5 202L92 207V201.5L91 196.5L90 199.5L88 203.5L87 199L83 194L83.5 199L81.5 205L79 202L75 198.5L76 203L74 207L69.5 203L64.5 201.5L62.5 197.5L60.5 199L58 199.5L54.5 196L50.5 196L48 198L47 188.5L39 187L35.5 182L43 180L45.9999 176L49.5 174L51.5 174.5L54 173.5L57.5 167L64 166L72.5 166.5L72.9999 157L75 162L78 166L78.9999 160.5L80.5 166L88 167.5L89.5 164L90 167L91 167.5L94 161.5L94 167.5L96.9999 164L97.5 167.5L99.5 167.5L100 165L101.5 167.5L104 166L104.5 168.5L107 168.5L109.5 165.5V168L112.5 165.5L115 168.5L120 169L120 165.5L122.5 168V164.5L125 167.5L128 167.5L128 165.5Z" fill="#BFCA33" stroke="#BFCA33" stroke-width="0.5"/>
<path d="M268.5 214.5L291 214.5L453.5 197L484 175L466 152L413.5 123L370 128L318 146.5L268.5 150L263 181L261 197L268.5 214.5Z" fill="#BFCA33" stroke="#BFCA33" stroke-width="0.5"/>
<path d="M62 208.5L67.5 215L25 215L17 207L11 196L0.5 177L8.49998 183.75L8.49998 180L10.5 181V179.25L12.5 178L13.7534 179.25L14.5 181.5L15 183.75L17 183H19.5L22 184L22.625 186L23.5 187.5L25 184.5L27 183.75L26 186L26.5 188L28 186H30L28.5 188L28.5 190L32.5 188L36 187.5L40 188L43.5 189L39.5 189L36 190L32.5 191.5L38.5 194.5L46.5 195.5L46 197.5L47 199L49.5 200.5L51.5 204L53 200.5L56 199.5L55.5 202L56.5 205L59 203V205.5L60 206.5L61.5 204.5H64.5L65.5 206.5L62.5 207L62 208.5Z" fill="#767F13" stroke="#767F13" stroke-width="0.5"/>
<path d="M291 211L270.947 214.756H457.5L453.5 199.5L447 185.5L440 183L433 182.75L429.5 179.5L424 179.5L416.5 172H414.5L412 173L411 169L411.5 164.5L406.5 169L402.5 174L402 168.5L402.5 163.5L403.5 152L400.5 157L398.5 162L396.5 167.5L395 173.5L392 167L388 161.5L390 167.5L391.5 173.5L393 184.5L389 184L388 182L386 180.5L381 189L377.5 184L372 180.5L370 186L369 192L367.5 186.5L365 181L364 187.5L361.5 192.5L360 188L357 184.5L356.5 189L355 192.5L354 190L353 188L352 186.5L350.5 184.5L351.5 188L352.5 195V199L350 195L346 192.5L343.5 191L340.5 190L337 190.5L334 191.5L332.5 189.5L330 188L328.5 191L326.5 191.5V189.5L325.5 188L324 186.5L322.5 185.5L321 187L319 189.5L317.5 192L315.5 195L315 190.5L315 186.5L315.5 182L317 177.5L313 182.5L310 187.5L307.5 193.5L306 199.5L303.5 200V194.5L301 190L299 193.5L298 198.5L298.5 204L297.5 208.5H293.5L290.5 207.5L287.5 208.5L289.5 209.5L291 211Z" fill="#D8DE83" stroke="#D8DE83" stroke-width="0.5"/>
<path d="M514 215.5L427.5 215.5L444.5 203L440 203L444.5 201L443.5 198H446L445.5 191L446.5 187L449 184.5L450.5 189.5L453.5 193.5L454.5 187.5L457 184.5L460.5 185.5L461.5 182.5L466.5 181L467 177.5H473L474.5 173.5L487 161L497.5 155L502 163.5L506 161.5L511 160L519 164L523.5 170.5L530 161.5L526.5 171L534 167.5L531.5 172.5L537.5 170.5L544 183.5L537.5 193.5L528 204.5L514 215.5Z" fill="#767F13" stroke="#767F13" stroke-width="0.5"/>
<path d="M249 2.63275C249.33 2.65811 249.862 15.922 250.185 15.922C250.006 15.922 250.012 15.601 249.881 15.4907C249.645 15.2908 249.39 15.1013 249.139 14.9206C248.425 14.4049 247.334 14.3005 246.49 14.1165C245.271 13.8509 243.814 14.0043 242.579 14.1201C241.229 14.2467 239.827 14.7735 238.657 15.4396C238.017 15.8043 237.461 16.3291 236.779 16.6164C236.108 16.8983 235.391 17.1231 234.688 17.3036C233.326 17.653 232 17.5003 230.62 17.3986C229.772 17.3361 228.927 17.1732 228.182 16.7444C227.611 16.4152 227.034 16.0431 226.596 15.5419C226.19 15.0785 225.698 14.4416 225.518 13.846C225.461 13.6581 224.894 12.341 225.002 12.2525C225.098 12.174 225.502 12.43 225.573 12.4645C225.934 12.64 226.236 12.7366 226.632 12.7788C227.656 12.8877 228.487 12.8692 229.469 12.501C230.273 12.1994 230.901 11.9862 231.501 11.3534C231.637 11.2101 232.448 10.602 231.888 10.5931C231.228 10.5827 230.677 10.3545 230.075 10.0961C228.682 9.49732 227.48 8.45472 226.501 7.31835C226.094 6.84589 225.826 6.23279 225.404 5.78329C225.209 5.57489 225.051 5.33563 224.907 5.08885C224.88 5.04237 225.122 5.16343 225.138 5.16926C225.704 5.37683 226.34 5.46427 226.925 5.62247C227.65 5.8184 228.342 6.22124 229.081 6.35345C229.87 6.49451 230.852 6.44125 231.64 6.34614C232.422 6.25175 233.325 6.23154 234.063 5.95872C234.44 5.81941 234.816 5.80493 235.178 5.60785C235.462 5.45326 235.724 5.26119 236.011 5.11078C236.632 4.78587 237.208 4.30877 237.743 3.85715C238.265 3.41708 238.774 3.02656 239.33 2.63275C239.844 2.26825 240.354 2.09283 240.952 1.90908C242.532 1.42421 244.276 1.60379 245.835 2.10279C246.218 2.22514 246.609 2.30828 246.99 2.43539C247.268 2.52786 248.705 2.6101 249 2.63275Z" fill="#FE702E" stroke="#DD5F24" stroke-width="0.5"/>
<path d="M249 0.5C249.054 1.79995 249.252 4.03041 249.401 5.32077C249.696 7.86028 249.989 10.4067 250.131 12.96C250.401 17.8136 250.076 22.6954 250.207 27.5532C250.256 29.3654 250.559 31.1587 250.626 32.9717C250.693 34.7792 250.651 36.5944 250.651 38.4029C250.651 39.3656 250.829 40 250.829 41.4738C250.9 41.633 250.829 43.5 250.829 43.5" stroke="#6C3D2B" stroke-width="1.5"/>
<path d="M367.5 137L365 142.5L363.5 140.5L363 137.5L361.5 140L360.5 142H359L358 140L358.5 128.5L358 106.5L363 109L367.5 112.5L368.5 120L371.5 125L376 126L379.5 132.5L375.5 136.5L373 140L371.5 144L370.5 142.5L370 138L371 133L367.5 137Z" fill="#6069B3" stroke="#6069B3" stroke-width="0.5"/>
<path d="M149.5 41.5L149.5 45L164 42L164.5 33.5L174.5 30.5L174.5 36L177 36L177.5 31.5L186.5 30.5L187 39L190.5 36L194.5 41.5L195 36.5L205 36.5L206 45.5L209.5 49V53.5L202.5 49.5L195 47L185 45L174 44L164.5 45L155.5 47L147 49.5L139 53L140.5 49.5L143 46.5L149.5 41.5Z" fill="#A5AAFF" stroke="#A5AAFF" stroke-width="0.5"/>
<path d="M209.5 56L208 56V64.5L212 64.5L214 67.5L217.5 69L222 61L226 60L227 57.5H228V52.5L234 49.5L238.5 44.5H243L248.5 41L252.5 43L255.5 41L260.5 42L265.5 36.5L268.5 39H272.5V31.5L280.5 25L282 27L287 25L299 24V22.5L311 20L311.5 16L322.5 13.5L323.5 11.5L334 10.5L340.5 15.5L345.5 18L349 28L377 45.5H382.5L388.5 47.5L391.5 51L392.5 55V57L397.5 55.5L405.5 55L413.5 58.5L418 63.5L420 69L419.5 76L417 81.5L415 85L419.5 86L423 88L426 91.5L427.5 94.5L428.5 97H452L456.5 99L461 101.5L464.5 104.5L467.5 108L469.5 112L470.5 115H475.5H482L486.5 116.5L491.5 119L495 122L498.5 127L502 133V164L498.5 166.5L497 161V157.5L494 161.5L492 170L487.5 164V168L489 172.5L486.5 173L480 166.5L486 174L481 173H477L473.5 175.5L472 173L474 164.5L471.5 163L469 158L465.5 160L461.5 166L460 160.5L457.5 156V159L457 161L455 157.5L452 154L453 158.5V163H450.5L445 157.5L440 146.5L436 145.5L432.5 147L431 144L427.5 145L428.5 140L431 135L427 137L423.5 140.5L417.5 137.5L413.5 130.5L408 126L405 129.5H400L394.5 133L389.5 136.5L384 139.5L384.5 136L386 133L384 135L382.5 137L384.5 127.5L379.5 132L378 129.5L376.5 126L371.5 125L369 120L367.5 112.5L363.5 109L357.5 106L359 123.5L358 139.5L357.5 137L356 138.5V141L356.5 145.5L351.5 148C351.5 148 347.484 148.961 346 148L321.5 129.5L295.5 112.5L282 101.5L276 84.5L262.5 87.5L256.5 80L250.5 77L244.5 75L240 77L236.5 80L233 84L229 82L222 78.5L215.5 77.5L208 70.5L190.5 59.5L166 47.5L167.5 77V109L165 159.5H158.5L157.5 154.5L154.5 157.5L151.5 156.5L149 161L147 158L144 161.5L139 163.5L135 162L133.5 167.5L130.5 167L135 114.5L139 54.5L146.5 51L155 48.5L164.5 46.5L174.5 45.5L185 46.5L195 48.5L202.5 51L209.5 55V56Z" fill="#A5AAFF" stroke="#A5AAFF" stroke-width="0.5"/>
<path d="M167.5 109L165 159.5L171.5 160.5L177 163L182 161.5L183 163.5L187.5 163L188.5 167L194.5 168.5L197 164V170L204 162L203 167.5L210 164.5L208.5 167L213 167.5L217 170L220.5 169.5L223 171.5L225 170L230 171L232.5 173.5V179.5L238 180L240.5 183L246.5 194L249 205L248 215H272.5L272 211.5L271.5 209.5L268.5 205.5L266.5 204.5L270.5 203.5H274.5L272 201L266 196L262 194L265 193.5H271L274 194.5L273 188.5L269 181.5L266 178L268.5 178.5L270.5 178L272 170.5L269 168L267 165.5L269.5 167L272.5 167.5L274 165V161.5L274.5 158L276 154L278.5 150.5L279 159L281 155.5L284 153L284.5 156.5L285.5 157.5L286 155.5L287.5 154.5V156.5L288.5 158.5L294.5 158L297.5 158.5L300.5 158L308.5 159.5L308 156V153L311 157L314 159.5L315 155.5L316.5 153V155L317.5 156L318.5 153.5L320 152.5V156L321.5 158.5L323.5 160V156.5L324 153.5L326.5 150.5L328 152.5L329 156L329.5 152L331 148.5L333 146L336.5 145L339.5 146.5L341.5 149L342 150.5L343 151.5L345.5 151V148.5V147.5L343.5 146C342.45 145.321 341.5 144.5 341.5 144.5L322 130L295.5 112.5L282 101.5L276 84.5L262.5 87.5L256.5 80L250.5 77L244.5 75L240 77L236.5 80L233 84L222 78.5L215.5 77.5L208 70.5L190.5 59.5L166 47.5L167.5 78V109Z" fill="#8D97E6" stroke="#8D97E6" stroke-width="0.5"/>
<path d="M273 158L274 165L272.5 167.5L270 167L270.5 161.5L270 156L269.5 151.5L268 147L266.5 143L264 139.5L261 136L257.5 133L262.5 133L265.5 132L267.5 138L270 144L272.5 147L273 158Z" fill="#6069B3" stroke="#6069B3" stroke-width="0.5"/>
<path d="M265.823 178.177L268.797 181.15L272.76 188.582L273.68 194.103L271.593 193.268L271.548 193.25H271.5H265H264.979L264.959 193.253L261.959 193.753L261.039 193.907L261.912 194.234L265.872 195.719L271.831 200.685L274.396 203.25H270.5H270.473L270.446 203.256L265.946 204.256L265.065 204.452L265.921 204.737L268.847 205.712L271.766 209.605L272.25 212.025V214.75H260.5H248.276L249.249 205.025L249.253 204.984L249.244 204.945L246.744 193.945L246.736 193.911L246.719 193.88L240.719 182.88L240.708 182.859L240.692 182.84L238.192 179.84L238.117 179.75H238H236.735L242.625 175.219L250.059 172.246L261.006 171.251L271.689 171.736L270.291 177.795L268.494 178.244L266.049 177.755L265.239 177.593L265.823 178.177Z" fill="#A5AAFF" stroke="#A5AAFF" stroke-width="0.5"/>
<path d="M153.902 48.7511C153.902 50.518 153.775 52.2775 153.775 54.0426C153.775 55.2731 153.739 56.5069 153.838 57.7343C153.881 58.266 153.859 58.8132 153.93 59.3412C153.964 59.5943 154.029 59.835 154.029 60.0916" stroke="#6267B9" stroke-width="2"/>
<path d="M165 46.5C165.043 49.2725 165 52.5 165 55C165 56 165 57 165 58C165 58.5 165 58.5436 165 59" stroke="#6267B9" stroke-width="2"/>
<path d="M178.044 47C178.044 48.0838 178.014 49.9166 178.044 51C178 52 178 53.5 178.044 54.5564C178 56 178 58 178 59.5" stroke="#6267B9" stroke-width="2"/>
<path d="M189.598 48C189.612 49.2526 189.514 50.5 189.514 51.8612C189.514 53.2224 189.514 54.2733 189.514 55.5C189.514 56.2105 189.5 56.5 189.514 57.5C189.498 57.7421 189.5 58.2572 189.5 58.5" stroke="#6267B9" stroke-width="2"/>
<path d="M199.5 50C199.5 51.912 199.457 54.2392 199.457 56.2243C199.457 57.5 199.499 58.8735 199.499 60.2074" stroke="#6267B9" stroke-width="2"/>
<path d="M206.5 53C206.5 54.4588 206.576 56.5 206.538 58C206.5 59.5 206.508 60.6998 206.5 62C206.495 62.7994 206.538 64.1442 206.538 64.1442" stroke="#6267B9" stroke-width="2"/>
<path d="M146 51C146 53.5 146 57.5 146 60C146 61 146 61.5971 146 62.5C146 62.793 146 63.5 146 64" stroke="#6267B9" stroke-width="2"/>
<path d="M140.534 70.0068C142.223 69.7193 143.721 68.9171 145.378 68.491C146.609 68.1745 147.758 67.7701 149 67.5C150.43 67.1891 151.883 66.8578 153.314 66.5293C154.932 66.158 156.585 66.0371 158.208 65.6773C159.273 65.4411 160.4 65.0378 161.487 64.9343C162.582 64.83 164.786 64.9244 164.786 64.9244" stroke="#6267B9" stroke-width="0.5"/>
<path d="M149.356 69.5C149.356 71.1869 149.093 72.3366 149.356 74C149.518 75.028 149.421 75.7287 149.807 76.6941" stroke="#6267B9" stroke-width="0.5"/>
<path d="M142.495 78.6558C143.526 78.6558 144.499 78.2907 145.5 78C146.337 77.7571 147.159 77.7253 147.984 77.4471C148.975 77.1127 150.014 76.9643 151.04 76.7833C152.442 76.5359 153.889 76.5406 155.276 76.2434C156.053 76.0767 156.858 75.9808 157.653 75.9808" stroke="#6267B9" stroke-width="0.5"/>
<path d="M175.308 63.6761C177.516 63.6761 179.698 63.9828 181.866 64.3894C182.774 64.5595 183.805 64.5881 184.645 65.0086C184.835 65.1035 185.645 65.1027 185.384 65.1027" stroke="#6267B9" stroke-width="0.5"/>
<path d="M179.588 64.746C179.588 67.4224 179.499 70.0943 179.499 72.7709" stroke="#6267B9" stroke-width="0.5"/>
<path d="M170.582 74.5542C171.29 74.5542 172.092 74.2732 172.782 74.1034C173.737 73.8682 175.031 73.5981 176 73.5C177.123 73.3864 177.851 73.5097 178.983 73.4892C180.192 73.4672 181.433 73.4236 182.629 73.6229C183.666 73.7956 184.666 74.2731 185.651 74.6136C186.334 74.8496 186.914 75.0964 187.553 75.4161C187.73 75.5046 188.832 75.9808 188.593 75.9808" stroke="#6267B9" stroke-width="0.5"/>
<path d="M194.568 66.886C196.215 66.6326 197.893 66.768 199.452 67.3516C200.413 67.7114 201.285 68.2014 202.087 68.8377C202.467 69.1389 202.869 69.4107 203.246 69.7145C203.349 69.7974 203.456 69.8776 203.543 69.977C204.166 70.6877 203.32 69.7675 203.573 70.2743" stroke="#6267B9" stroke-width="0.5"/>
<path d="M198.58 76.3375C198.951 77.0505 200.49 76.956 201.156 77.2539C201.702 77.4983 202.269 77.8865 202.682 78.2991" stroke="#6267B9" stroke-width="0.5"/>
<path d="M140.534 89.2664C140.578 89.6229 141.87 89.4447 142.124 89.4447C143.545 89.4447 145.111 88.9753 146.468 88.5927C147.93 88.1805 149.384 87.7571 150.857 87.389C151.599 87.2035 152.317 86.951 153.066 86.7896C153.958 86.5976 154.876 86.4762 155.751 86.215C157.251 85.7671 158.706 85.6505 160.249 85.4273C161.51 85.245 162.761 84.9189 164.034 84.828C166.651 84.641 169.287 84.5205 171.915 84.4564C173.577 84.4159 175.177 84.3253 176.834 84.184C178.286 84.0601 179.78 84.04 181.237 84.1047C183.106 84.1878 185.135 84.2953 186.959 84.719C188.552 85.0889 190.147 85.0606 191.749 85.2986C193.548 85.5657 195.364 85.626 197.163 85.9178C198.478 86.131 200.104 86.2192 201.205 87.0373C202.253 87.8154 204.643 88.9097 204.643 88.9097" stroke="#6267B9" stroke-width="0.5"/>
<path d="M141.425 99.6095C142.327 99.5344 143.178 99.1628 144.031 98.8962C145.683 98.3799 147.46 98.1913 149.173 98.0046C151.481 97.7528 153.883 97.6479 156.137 97.6479" stroke="#6267B9" stroke-width="0.5"/>
<path d="M149.45 96.8454C149.713 96.7871 149.782 96.2133 149.797 96.0082C149.868 95.0412 149.807 94.0504 149.807 93.0807C149.807 91.8092 149.807 90.5378 149.807 89.2664" stroke="#6267B9" stroke-width="0.5"/>
<path d="M181.371 84.0948C181.111 86.2265 181.028 88.3582 181.014 90.5048C181.01 91.3057 180.925 92.1017 180.925 92.9023C180.925 93.1918 180.957 93.4829 180.836 93.7246" stroke="#6267B9" stroke-width="0.5"/>
<path d="M171.028 93.8138C173.902 93.8138 176.739 92.9685 179.627 93.1897C181.514 93.334 183.329 93.8728 185.205 94.0813" stroke="#6267B9" stroke-width="0.5"/>
<path d="M194.478 94.8838C195.365 94.8838 196.259 94.7655 197.143 94.7946C198.316 94.8333 199.624 95.4928 200.71 95.9042C201.905 96.3571 202.955 97.1578 204.158 97.6281C204.492 97.7588 204.865 97.8478 205.178 98.0046" stroke="#6267B9" stroke-width="0.5"/>
<path d="M183.868 103.444C185.095 103.444 186.327 103.408 187.553 103.454C188.714 103.497 189.864 103.667 191.026 103.711C192.318 103.76 193.64 103.721 194.924 103.86C197.264 104.113 199.729 104.434 201.889 105.4C202.889 105.848 203.9 106.108 204.911 106.475" stroke="#6267B9" stroke-width="0.5"/>
<path d="M175.843 104.335C175.843 105.85 175.983 107.335 175.823 108.853C175.601 110.96 175.13 113.093 175.13 115.213" stroke="#6267B9" stroke-width="0.5"/>
<path d="M182.352 113.698C183.054 113.849 183.807 113.787 184.522 113.787C186.202 113.787 187.885 113.758 189.564 113.826C193.578 113.991 197.615 114.07 201.631 113.916C203.638 113.838 205.629 113.501 207.63 113.435C208.113 113.419 210.154 113.678 210.261 113.252" stroke="#6267B9" stroke-width="0.5"/>
<path d="M138.929 108.883C140.823 108.883 142.742 108.466 144.596 108.12C146.237 107.813 147.851 107.401 149.51 107.179C151.612 106.897 153.726 106.678 155.83 106.406C157.289 106.217 158.835 106.184 160.239 105.712C161.119 105.416 162.048 105.202 162.954 104.999C164.334 104.69 167.194 104.87 167.194 104.87" stroke="#6267B9" stroke-width="0.5"/>
<path d="M140.979 118.869C141.88 118.603 142.746 118.259 143.635 117.958C145.226 117.419 146.849 117.084 148.509 116.838C152.621 116.229 156.757 115.915 160.888 115.476C163.278 115.222 165.616 114.642 167.991 114.287C168.937 114.146 171.806 114.054 170.85 114.054" stroke="#6267B9" stroke-width="0.5"/>
<path d="M156.762 106.564C157.073 108.512 156.981 110.493 157.346 112.439C157.494 113.225 157.65 114.227 158.01 114.946" stroke="#6267B9" stroke-width="0.5"/>
<path d="M139.731 127.251C142.231 126.404 144.672 125.679 147.295 125.339C148.848 125.137 150.385 125.111 151.947 125.111" stroke="#6267B9" stroke-width="0.5"/>
<path d="M160.239 132.957C160.707 131.553 160.417 130.122 160.417 128.677" stroke="#6267B9" stroke-width="0.5"/>
<path d="M137.234 136.524C138.08 137.101 139.385 137.081 140.365 137.193C141.851 137.362 143.329 137.701 144.818 137.812C148.064 138.053 151.318 138.496 154.572 138.575C155.123 138.588 166.124 138.921 166.124 138.485" stroke="#6267B9" stroke-width="0.5"/>
<path d="M145.794 138.396C145.532 139.882 145.566 141.483 145.532 142.993C145.51 143.957 145.527 144.922 145.527 145.886" stroke="#6267B9" stroke-width="0.5"/>
<path d="M135.451 145.351C136.549 145.653 137.69 145.755 138.82 145.886C142.295 146.29 145.759 146.332 149.252 146.332C151.87 146.332 154.503 146.253 157.118 146.391C160.522 146.571 163.913 146.796 167.323 146.916C171.346 147.058 175.181 146.944 179.137 146.238C181.624 145.794 184.129 145.59 186.622 145.207C187.598 145.058 188.517 144.899 189.396 144.459" stroke="#6267B9" stroke-width="0.5"/>
<path d="M179.053 138.753C179.559 138.596 180 138.361 180.425 138.045C181.025 137.598 181.654 137.353 182.372 137.148C184.279 136.603 186.163 135.964 188.078 135.454C190.375 134.843 192.557 134.188 194.359 132.551C195.466 131.546 196.46 130.072 196.707 128.588" stroke="#6267B9" stroke-width="0.5"/>
<path d="M190.109 135.721C191.379 135.699 192.644 135.588 193.914 135.548C195.109 135.51 196.317 135.522 197.505 135.36C198.047 135.286 198.559 135.097 199.115 135.097" stroke="#6267B9" stroke-width="0.5"/>
<path d="M173.703 123.238C175.592 123.238 177.434 122.58 179.296 122.317C181.606 121.99 183.943 121.812 186.275 121.812" stroke="#6267B9" stroke-width="0.5"/>
<path d="M199.472 142.052C202.25 141.547 204.709 140.192 207.328 139.238C207.814 139.062 208.402 138.979 208.834 138.684C209.009 138.564 209.163 138.575 209.369 138.575" stroke="#6267B9" stroke-width="0.5"/>
<path d="M187.256 152.395C188.962 152.395 190.662 152.38 192.289 151.821C193.798 151.302 195.095 150.347 196.618 149.899" stroke="#6267B9" stroke-width="0.5"/>
<path d="M198.402 156.764C199.618 156.764 200.847 156.778 202.057 156.635C203.378 156.48 204.691 155.918 205.931 155.466C206.691 155.19 207.896 154.93 208.497 154.347C208.682 154.168 208.953 153.822 208.566 153.822" stroke="#6267B9" stroke-width="0.5"/>
<path d="M173.792 146.689C173.591 148.427 173.556 150.382 173.97 152.098C174.081 152.557 174.179 152.997 174.238 153.465" stroke="#6267B9" stroke-width="0.5"/>
<path d="M139.285 157.032C140.068 157.315 140.987 157.258 141.802 157.26C142.99 157.262 144.19 157.249 145.368 157.081C147.323 156.803 149.301 156.467 151.273 156.338C152.488 156.259 153.661 156.14 154.889 156.14" stroke="#6267B9" stroke-width="0.5"/>
<path d="M158.723 156.318C159.891 157.315 161.893 157.299 163.36 157.299" stroke="#6267B9" stroke-width="0.5"/>
<path d="M208.537 67.8368C208.537 70.6535 208.306 73.5856 208.611 76.3882C208.96 79.5988 209.176 82.8894 209.203 86.1242C209.216 87.6305 209.456 89.0694 209.573 90.5665C209.717 92.3983 209.702 94.2605 209.944 96.0823C210.406 99.566 210.536 103.142 210.536 106.66C210.536 108.805 210.442 110.969 210.703 113.102C210.88 114.558 210.914 115.991 210.786 117.451C210.482 120.92 210.291 124.4 209.962 127.872C209.721 130.424 209.703 133.001 209.703 135.563C209.703 136.592 209.751 137.399 210.203 138.302" stroke="#6267B9" stroke-width="0.5"/>
<path d="M210.203 138.302C210.203 143.902 209.87 149.517 209.87 155.127" stroke="#6267B9" stroke-width="0.5"/>
<path d="M218.199 72.3346C218.199 74.2445 218.838 76.0916 218.865 77.9985C218.908 81.0152 219.49 83.9952 219.532 86.9941C219.553 88.5047 219.598 89.9936 219.698 91.5012C219.807 93.1309 220.177 94.7227 220.198 96.3599C220.251 100.469 220.763 104.54 220.873 108.641C220.949 111.422 221.261 114.182 221.512 116.942C221.763 119.705 221.41 122.518 221.614 125.29C221.766 127.357 221.501 129.618 222.03 131.63C222.332 132.777 222.363 134.11 222.363 135.304" stroke="#6267B9" stroke-width="0.5"/>
<path d="M236.029 49.1874C236.029 50.5687 235.964 51.9035 235.819 53.2735C235.788 53.5641 235.718 54.0212 235.8 54.3081C235.956 54.8544 236.264 55.2731 236.264 55.8861C236.264 56.1677 236.264 56.4493 236.264 56.7308" stroke="#6267B9" stroke-width="0.5"/>
<path d="M238.268 48.4803C238.091 50.188 238.202 51.9052 238.032 53.614C237.971 54.2324 238.048 55.0141 237.888 55.6177C237.738 56.1848 236.463 56.2594 236.029 56.2594" stroke="#6267B9" stroke-width="0.5"/>
<path d="M228.013 63.4448C229.401 63.4101 230.805 63.3366 232.184 63.1714C233.501 63.0137 234.819 62.6645 236.118 62.3928C237.469 62.1103 238.806 61.903 240.173 61.7219C241.907 61.492 243.605 61.0655 245.342 60.8438C246.948 60.6388 248.545 60.4021 250.146 60.1646C251.938 59.8988 253.788 59.8887 255.563 59.5351C256.667 59.3151 257.692 59.11 258.827 59.0629C258.971 59.0569 259.609 59.1466 259.697 58.9718" stroke="#6267B9" stroke-width="0.5"/>
<path d="M228.386 65.5322C229.1 65.5322 229.811 65.4985 230.523 65.4411C233.05 65.237 235.589 65.0473 238.11 64.7784C241.671 64.3986 245.17 63.6938 248.713 63.2046C250.34 62.9799 251.966 62.7476 253.563 62.3555C255.304 61.928 256.995 61.3214 258.736 60.8935C260.987 60.34 263.358 60.1222 265.661 59.8664" stroke="#6267B9" stroke-width="0.5"/>
<path d="M227.417 71.2725C228.183 71.2559 228.939 71.1511 229.695 71.0282C231.602 70.7178 233.505 70.395 235.418 70.1211C236.879 69.9121 238.351 69.7595 239.809 69.533C241.459 69.2766 243.078 68.8832 244.712 68.5473C248.136 67.8439 251.632 67.382 255.083 66.8327C257.864 66.3899 260.806 66.3606 263.499 65.5322" stroke="#6267B9" stroke-width="0.5"/>
<path d="M227.224 71.9191C227.171 73.914 226.783 75.8562 226.783 77.869C226.783 80.5409 226.809 83.1957 226.93 85.8646C226.996 87.3086 227.385 88.6801 227.493 90.111C227.594 91.4668 227.648 92.859 227.664 94.2189C227.698 97.1982 227.905 100.226 228.332 103.176C228.784 106.301 228.691 109.398 228.691 112.557C228.691 116.046 228.668 119.52 228.691 123.006C228.705 125.186 228.595 127.382 228.699 129.559C228.728 130.181 228.788 130.895 228.984 131.483" stroke="#6267B9" stroke-width="0.5"/>
<path d="M263.461 65.3172C263.796 65.7776 263.695 66.8958 263.722 67.42C263.834 69.6471 263.801 71.8778 263.982 74.1034C264.109 75.6561 264.233 77.2716 264.496 78.8063C264.785 80.4918 265.326 82.1048 265.515 83.8025" stroke="#6267B9" stroke-width="0.5"/>
<path d="M269.476 73.3862C269.476 75.7362 269.731 78.0696 269.883 80.4119C270.207 85.3696 270.063 90.3609 270.063 95.3273C270.063 98.4766 270.191 101.621 270.356 104.766C270.433 106.237 270.796 107.717 270.796 109.183" stroke="#6267B9" stroke-width="0.5"/>
<path d="M274.254 32.9078C274.339 34.7207 274.783 36.4952 274.969 38.2989C275.153 40.0866 275.084 41.8956 275.084 43.69C275.084 47.4415 275.084 51.1931 275.084 54.9446C275.084 65.7438 275.499 76.5263 275.499 87.3259C275.499 93.972 275.676 100.612 275.706 107.255C275.739 114.514 275.442 121.818 275.729 129.072C275.87 132.633 276.647 136.26 277.376 139.74C277.916 142.313 278.372 144.898 278.862 147.481C279.001 148.211 279.231 148.903 279.231 149.646" stroke="#6267B9" stroke-width="0.5"/>
<path d="M274.877 45.3488C276.505 45.2008 278.2 44.0487 279.669 43.4827C283.888 41.8563 288.111 40.551 292.547 39.7043C297.182 38.8197 301.796 37.8558 306.394 36.8014C309.581 36.0706 313.055 34.9813 316.347 34.9813" stroke="#6267B9" stroke-width="0.5"/>
<path d="M274.877 38.0915C277.406 38.0915 279.769 36.9442 282.145 36.1793C286.162 34.8866 290.133 33.5893 294.275 32.7465C297.646 32.0607 300.871 31.0104 304.32 30.7421C307.719 30.4778 311.069 29.98 314.481 29.8436C318.451 29.6848 322.442 29.7975 326.415 29.7975C330.057 29.7975 333.706 29.6976 337.312 30.3044C341.421 30.9958 345.49 31.6921 349.523 32.7004" stroke="#6267B9" stroke-width="0.5"/>
<path d="M325.885 20.8814C325.922 21.5875 326.14 22.292 326.3 22.978C326.509 23.8779 326.39 24.7781 326.553 25.6735C326.687 26.4103 328.943 26.5613 328.995 26.0652C329.285 23.3082 328.373 20.357 328.373 17.5638" stroke="#6267B9" stroke-width="0.5"/>
<path d="M281.304 48.8738C283.54 48.8738 285.281 48.7106 287.41 47.9292C290.618 46.7517 293.62 44.9976 296.925 44.1162C301.188 42.9793 305.516 42.4459 309.919 42.4459" stroke="#6267B9" stroke-width="0.5"/>
<path d="M297.892 43.2753C298.139 46.2304 298.307 49.2164 298.307 52.1914" stroke="#6267B9" stroke-width="0.5"/>
<path d="M280.682 59.034C282.102 59.7439 284.635 59.0712 286.027 58.5962C288.333 57.8095 290.544 57.0257 292.916 56.4306C299.671 54.7357 306.571 54.1337 313.421 52.9402C319.67 51.8513 326.009 51.3063 332.29 50.4289C336.714 49.8108 341.127 49.9105 345.583 49.9105" stroke="#6267B9" stroke-width="0.5"/>
<path d="M323.604 41.6165C327.411 42.7879 332.08 40.86 335.93 40.6258C338.24 40.4854 340.574 40.5798 342.888 40.5798" stroke="#6267B9" stroke-width="0.5"/>
<path d="M324.226 43.068C324.226 45.6999 324.433 48.3166 324.433 50.9473" stroke="#6267B9" stroke-width="0.5"/>
<path d="M280.475 67.328C284.357 67.328 287.795 65.9473 291.488 65.0241C293.326 64.5645 295.248 64.5291 297.063 64.0104" stroke="#6267B9" stroke-width="0.5"/>
<path d="M306.394 60.6928C306.394 62.3823 306.954 63.9471 307.004 65.6462C307.078 68.1532 306.93 70.6403 307.223 73.1338" stroke="#6267B9" stroke-width="0.5"/>
<path d="M325.263 60.9001C329.809 60.9001 334.333 60.4854 338.879 60.4854C342.637 60.4854 346.232 60.7855 349.938 61.3148" stroke="#6267B9" stroke-width="0.5"/>
<path d="M338.741 66.9133C338.741 69.4191 338.892 71.9229 338.326 74.3779" stroke="#6267B9" stroke-width="0.5"/>
<path d="M283.793 79.7691C285.871 79.5381 287.731 78.3824 289.645 77.6264C293.168 76.2343 296.878 75.772 300.577 75.0922C307.466 73.8257 314.541 72.6387 321.554 72.3505C327.996 72.0858 334.279 73.0136 340.595 74.0324C343.05 74.4283 345.472 74.7313 347.864 75.4147" stroke="#6267B9" stroke-width="0.5"/>
<path d="M283.171 87.6484C284.909 87.4497 286.635 86.777 288.343 86.4043C291.958 85.6155 295.592 84.8785 299.252 84.3308C306.402 83.2606 313.577 81.9296 320.828 81.8541C327.151 81.7882 333.48 81.6824 339.8 81.6352C341.677 81.6212 343.211 81.6011 344.961 82.2573" stroke="#6267B9" stroke-width="0.5"/>
<path d="M288.562 82.8793C288.562 85.1756 288.562 87.4718 288.562 89.768C288.562 90.3764 288.185 93.3694 288.769 93.6616" stroke="#6267B9" stroke-width="0.5"/>
<path d="M316.139 83.294C316.843 85.6691 316.347 88.7006 316.347 91.1734" stroke="#6267B9" stroke-width="0.5"/>
<path d="M280.682 101.541C281.507 101.497 282.151 101.148 282.906 100.838C287.7 98.8742 293.034 97.8006 298.1 96.7949C302.769 95.8679 307.532 95.5326 312.257 95.0209C316.555 94.5555 320.919 94.0573 325.24 93.915C331.452 93.7104 337.66 93.7458 343.786 94.8596C344.428 94.9764 344.874 95.113 345.583 95.113" stroke="#6267B9" stroke-width="0.5"/>
<path d="M298.722 98.0159C298.842 100.784 298.929 103.536 298.929 106.31" stroke="#6267B9" stroke-width="0.5"/>
<path d="M290.428 110.457C291.818 111.569 295.632 109.422 297.017 109.052C300.443 108.135 303.915 108.136 307.431 107.969" stroke="#6267B9" stroke-width="0.5"/>
<path d="M335.423 95.3204V99.6748" stroke="#6267B9" stroke-width="0.5"/>
<path d="M325.47 106.31C327.832 106.31 330.208 106.233 332.566 106.356C335.499 106.509 338.807 106.365 341.644 106.932" stroke="#6267B9" stroke-width="0.5"/>
<path d="M320.286 113.982C324.062 113.609 327.985 113.567 331.783 113.567C333.545 113.567 336.867 113.667 337.911 114.189" stroke="#6267B9" stroke-width="0.5"/>
<path d="M303.076 113.775C303.476 118.173 303.284 122.63 303.284 127.045" stroke="#6267B9" stroke-width="0.5"/>
<path d="M286.488 131.192C287.233 131.689 288.754 131.12 289.495 130.973C292.375 130.402 295.249 129.82 298.146 129.337C304.333 128.306 310.505 127.917 316.761 127.713C323.902 127.481 330.991 127.045 338.142 127.045C340.013 127.045 341.866 127.122 343.717 126.838" stroke="#6267B9" stroke-width="0.5"/>
<path d="M342.058 126.216C342.058 128.184 342.68 130.075 342.68 132.021" stroke="#6267B9" stroke-width="0.5"/>
<path d="M289.391 143.426C291.447 143.426 293.396 142.942 295.37 142.412C298.368 141.608 301.557 140.944 304.62 140.454C309.714 139.638 314.765 139.577 319.664 137.827" stroke="#6267B9" stroke-width="0.5"/>
<path d="M322.775 148.402C325.091 149.02 328.023 148.61 330.447 148.61" stroke="#6267B9" stroke-width="0.5"/>
<path d="M349.5 28C349.5 32.9985 349.759 39.3826 350.456 44.3351C350.738 46.3422 351.296 48.2308 351.665 50.2101C352.06 52.3272 352.111 54.6051 352.264 56.7531C352.811 64.3995 353.355 72.0621 353.981 79.7C354.614 87.4263 355.244 94.8907 357 102.5C358.055 107.07 359 111.774 359 116.5" stroke="#6267B9" stroke-width="0.5"/>
<path d="M357.195 40.3724C357.195 42.3863 358.077 44.4906 358.393 46.4777C358.802 49.049 359.312 51.6127 359.568 54.2073C359.886 57.4385 360.125 60.7216 360.305 63.9643C360.371 65.1561 360.562 66.3257 360.674 67.5123C360.718 67.986 360.616 68.4686 360.927 68.7795" stroke="#6267B9" stroke-width="0.5"/>
<path d="M368.599 49.4958C368.322 51.1557 367.988 52.5413 367.977 54.2419C367.962 56.5645 367.77 58.8756 367.77 61.1996C367.77 63.9397 367.977 66.6606 367.977 69.4015" stroke="#6267B9" stroke-width="0.5"/>
<path d="M388.92 56.7531C389.218 57.2747 389.123 58.0043 389.127 58.5732C389.135 59.9516 389.127 61.3303 389.127 62.7087C389.127 65.1868 388.934 67.7557 389.242 70.2194C389.463 71.9844 390.027 73.6742 390.371 75.4147C390.488 76.0068 390.825 77.0347 390.371 77.4882" stroke="#6267B9" stroke-width="0.5"/>
<path d="M380.211 75.8294H386.017" stroke="#6267B9" stroke-width="0.5"/>
<path d="M362.171 82.4646C363.955 82.4646 365.701 82.7757 367.47 82.983C371.292 83.4306 375.265 83.7683 378.967 84.8607C381.464 85.5977 383.86 86.2537 386.431 86.7038C386.752 86.7599 389.247 86.8793 388.712 86.6116" stroke="#6267B9" stroke-width="0.5"/>
<path d="M359.476 86.4043C359.476 88.7574 359.596 91.1031 359.683 93.4542" stroke="#6267B9" stroke-width="0.5"/>
<path d="M370.051 96.1498C370.417 97.8896 374.099 98.0026 375.373 98.1311C378.27 98.4237 381.126 98.921 384.035 99.0988C386.346 99.24 388.649 99.6168 390.97 99.4213C391.635 99.3653 392.504 99.4279 393.067 99.0527" stroke="#6267B9" stroke-width="0.5"/>
<path d="M385.809 116.055C387.071 116.867 389.467 116.883 390.947 117.173C391.664 117.313 392.859 117.507 393.481 117.3" stroke="#6267B9" stroke-width="0.5"/>
<path d="M396.384 82.4646C396.482 86.7983 397.128 91.084 397.421 95.401C397.672 99.1073 397.887 102.807 398.089 106.517C398.27 109.835 398.458 113.135 398.458 116.459C398.458 117.207 398.458 117.956 398.458 118.705C398.458 119.065 397.958 118.272 397.836 118.129" stroke="#6267B9" stroke-width="0.5"/>
<path d="M397.628 68.3648C400.707 68.3648 403.595 68.4499 406.613 69.1942C409.14 69.8173 411.636 70.6917 414.216 71.0603" stroke="#6267B9" stroke-width="0.5"/>
<path d="M401.568 74.1706C402.624 74.1706 403.68 74.1706 404.736 74.1706C405.829 74.1706 406.887 74.2565 407.973 74.3779C409.147 74.5093 410.583 74.3379 411.705 74.7235C414.233 75.5927 416.136 77.3437 418.571 78.3176" stroke="#6267B9" stroke-width="0.5"/>
<path d="M426.865 105.688C428.261 105.688 429.681 104.98 431.127 104.859C436.004 104.449 441.088 103.616 445.987 104.075C447.699 104.236 449.281 105.017 450.894 105.55C452.371 106.037 453.895 106.339 455.387 106.771C457.746 107.454 460.464 108.044 462.529 109.42" stroke="#6267B9" stroke-width="0.5"/>
<path d="M427.694 113.775C427.608 117.817 427.512 121.636 428.109 125.64C428.253 126.608 428.965 131.548 427.901 131.814" stroke="#6267B9" stroke-width="0.5"/>
<path d="M436.818 118.751C437.347 119.811 440.433 119.552 441.448 119.627C444.302 119.837 446.8 120.006 449.512 120.94C455.205 122.901 461.084 124.397 466.883 126.008" stroke="#6267B9" stroke-width="0.5"/>
<path d="M438.684 131.192C438.973 131.654 440.675 131.399 441.057 131.399C443.323 131.399 445.523 131.343 447.703 132.045C450.736 133.021 453.726 134.232 456.516 135.754" stroke="#6267B9" stroke-width="0.5"/>
<path d="M471.03 116.885C471.482 119.594 472.406 122.259 472.897 124.983C473.736 129.644 474.807 134.265 475.477 138.956C475.991 142.553 475.824 146.253 475.8 149.877C475.779 152.961 475.613 156.133 475.177 159.184" stroke="#6267B9" stroke-width="0.5"/>
<path d="M478.495 131.814C482.652 131.963 486.773 131.814 490.936 131.814" stroke="#6267B9" stroke-width="0.5"/>
<path d="M232.844 136.953C233.233 137.136 233.816 137.058 234.218 137.058C236.016 137.058 237.814 137.014 239.611 136.953C242.932 136.842 246.244 136.629 249.564 136.517C251.257 136.459 252.94 136.173 254.625 136.004C254.937 135.973 256.03 135.695 256.011 135.695" stroke="#6267B9" stroke-width="0.5"/>
<path d="M235.15 139.155C240.032 139.852 245.074 139.005 249.954 138.631C252.816 138.411 255.667 138.03 258.527 137.792" stroke="#6267B9" stroke-width="0.5"/>
<path d="M223.934 147.017C227.759 146.94 231.501 145.923 235.313 145.619C240.068 145.239 244.874 145.34 249.64 145.34C251.057 145.34 252.48 145.376 253.897 145.322C255.366 145.266 256.823 145.059 258.294 145.002C260.815 144.904 263.208 144.734 265.655 144.082" stroke="#6267B9" stroke-width="0.5"/>
<path d="M223.095 150.371C226.531 150.728 230.133 150.475 233.572 150.208C238.724 149.808 243.89 149.62 249.046 149.276C253.163 149.002 257.304 148.886 261.427 148.694C262.804 148.63 264.164 148.543 265.509 148.228C265.861 148.146 266.124 148.068 266.389 147.855" stroke="#6267B9" stroke-width="0.5"/>
<path d="M227.078 156.451C231.592 156.811 236.082 156.613 240.555 155.916C243.064 155.524 245.537 154.949 248.056 154.611C250.09 154.338 252.136 154.118 254.176 153.895C257.529 153.527 260.89 153.163 264.222 152.631C265.411 152.441 266.574 152.16 267.746 151.891C267.959 151.842 268.286 151.777 268.497 151.687C268.922 151.507 268.183 151.529 268.171 151.524" stroke="#6267B9" stroke-width="0.5"/>
<path d="M216.071 161.273C217.161 161.106 218.283 161.088 219.379 160.982C222.655 160.667 225.917 160.271 229.187 159.911C234.84 159.287 240.5 158.744 246.157 158.152C251.183 157.626 256.125 157.026 261.182 156.97C263.648 156.942 266.038 156.633 268.485 156.451" stroke="#6267B9" stroke-width="0.5"/>
<path d="M219.636 167.563C223.643 167.563 227.61 167.535 231.609 167.249C236.998 166.863 242.387 166.464 247.776 166.084C251.902 165.793 256.02 165.475 260.099 164.756C262.574 164.32 265.038 163.818 267.542 163.58" stroke="#6267B9" stroke-width="0.5"/>
<path d="M234.416 171.756C237.664 171.63 240.879 171.096 244.09 170.621C247.662 170.092 251.236 169.57 254.805 169.025C257.319 168.641 259.816 168.167 262.324 167.749C263.989 167.472 265.708 167.303 267.332 166.934" stroke="#6267B9" stroke-width="0.5"/>
<path d="M241.964 177.417C242.231 177.773 244.222 177.269 244.433 177.236C246.816 176.869 249.199 176.448 251.573 176.031C253.733 175.651 255.86 175.222 258.038 174.953C259.119 174.82 260.188 174.605 261.252 174.377" stroke="#6267B9" stroke-width="0.5"/>
<path d="M248.044 185.384C252.034 185.384 256.002 185.069 259.994 185.069" stroke="#6267B9" stroke-width="0.5"/>
<path d="M247.205 194.609C249.144 194.458 251.057 193.917 252.953 193.52C255.35 193.017 257.76 192.589 260.181 192.221C261.667 191.995 263.155 191.814 264.659 191.784C265.108 191.775 265.566 191.808 265.97 191.673" stroke="#6267B9" stroke-width="0.5"/>
<path d="M248.463 198.173C251.37 198.112 254.241 197.672 257.129 197.381C258.958 197.196 260.796 197.122 262.627 196.961C263.48 196.886 264.724 197.073 265.445 196.496" stroke="#6267B9" stroke-width="0.5"/>
<path d="M250.56 207.817C255.188 207.817 259.763 206.978 264.397 206.978" stroke="#6267B9" stroke-width="0.5"/>
<path d="M164.5 45L155 47L147 49.5L139 53V54.2552L146.996 51.0052L154.996 48.5052L164.496 46.5052L174.496 45.5052L184.996 46.5052L194.996 48.5052L202.496 51.0052L209.5 55V53.5L202.5 49.5L195 47L185 45L174.5 44L164.5 45Z" fill="#C2CCFF" stroke="#C2CCFF" stroke-width="0.5"/>
<path d="M230.753 130.842L231.743 83.3445L232.921 83.7372L233.067 83.786L233.177 83.6768L236.677 80.1768L240.144 76.7096L244.507 74.7705L250.895 77.2274L256.336 80.1954L262.257 87.5962L265.735 131.825L262.959 132.75H257.5V132.75L257.488 132.75L237.049 133.747L230.753 130.842Z" fill="#7D84E4" stroke="#7D84E4" stroke-width="0.5"/>
<path d="M254.795 85.1481L258.251 92.062L259.244 131.25H238.75V97.0178L239.245 93.5523L240.231 90.1004L243.211 85.1337L245.171 82.1939L248.014 80.7724L251.861 82.2151L254.795 85.1481Z" fill="#6069B3" stroke="#6069B3" stroke-width="0.5"/>
<path d="M237 134L230 130.5L225 134L223 136L216 136L210.5 138L212.5 143.5L213 147.5L212.5 152L210 155.5L207.5 159L204 160L195 160L194 161.5L185.5 161L183.5 163.5L187.5 163L188.5 167L194.5 168.5L197 164L197 170L204 162L203 167.5L210 164.5L208.5 167L213 167.5L214 168L215 160L215.5 155.5L216.5 152.5L220.5 147.5L225 143.5L227 140L229.5 137L233 135L237 134Z" fill="#6069B3" stroke="#6069B3" stroke-width="0.5"/>
</svg>
